<?xml version="1.0" standalone="no"?>
<!DOCTYPE svg PUBLIC "-//W3C//DTD SVG 1.1//EN" "http://www.w3.org/Graphics/SVG/1.1/DTD/svg11.dtd" >
<svg xmlns="http://www.w3.org/2000/svg" xmlns:xlink="http://www.w3.org/1999/xlink" version="1.1">
<metadata>
Created by FontForge 20170924 at Mon Jan 20 03:11:29 2020
 By www-data
Copyright 1989, 2001 Adobe Systems Incorporated. All Rights Reserved. Monotype Imaging Inc.
</metadata>
<defs>
<font id="xiaomaomi" horiz-adv-x="1074" >
  <font-face 
    font-family="xiaomaomi"
    font-weight="400"
    font-stretch="normal"
    units-per-em="1024"
    panose-1="4 15 7 0 0 0 0 0 0 0"
    ascent="820"
    descent="-204"
    x-height="612"
    cap-height="800"
    bbox="0 -153 1075 1000.61"
    underline-thickness="50"
    underline-position="-135"
    unicode-range="U+0021-732B"
  />
<missing-glyph horiz-adv-x="374" 
d="M466 735q0 -37 -10 -86l-88 -409l-111 14l66 469q13 89 77 89q66 0 66 -77zM252 175q9 0 33 -32q0 -44 -45 -44q-33 9 -33 44q9 32 45 32zM128 119h26q10 0 26 -27q0 -35 -26 -45h-26q-26 10 -26 45q0 10 26 27zM344 139h34q7 0 18 -19v-33q0 -8 -18 -19h-27
q-10 0 -26 26v26q0 9 19 19zM248 56q108 -18 108 -84v-25q0 -51 -32 -65h-25q-43 38 -65 38q-44 -6 -71 -6q-19 33 -19 45q0 76 104 97zM427 51q39 -14 39 -45q-9 -32 -45 -32q-30 13 -33 26v6q0 45 39 45z" />
    <glyph glyph-name=".notdef" horiz-adv-x="374" 
d="M466 735q0 -37 -10 -86l-88 -409l-111 14l66 469q13 89 77 89q66 0 66 -77zM252 175q9 0 33 -32q0 -44 -45 -44q-33 9 -33 44q9 32 45 32zM128 119h26q10 0 26 -27q0 -35 -26 -45h-26q-26 10 -26 45q0 10 26 27zM344 139h34q7 0 18 -19v-33q0 -8 -18 -19h-27
q-10 0 -26 26v26q0 9 19 19zM248 56q108 -18 108 -84v-25q0 -51 -32 -65h-25q-43 38 -65 38q-44 -6 -71 -6q-19 33 -19 45q0 76 104 97zM427 51q39 -14 39 -45q-9 -32 -45 -32q-30 13 -33 26v6q0 45 39 45z" />
    <glyph glyph-name="exclam" unicode="!" horiz-adv-x="615" 
d="M466 735q0 -37 -10 -86l-88 -409l-111 14l66 469q13 89 77 89q66 0 66 -77zM252 175q9 0 33 -32q0 -44 -45 -44q-33 9 -33 44q9 32 45 32zM128 119h26q10 0 26 -27q0 -35 -26 -45h-26q-26 10 -26 45q0 10 26 27zM344 139h34q7 0 18 -19v-33q0 -8 -18 -19h-27
q-10 0 -26 26v26q0 9 19 19zM248 56q108 -18 108 -84v-25q0 -51 -32 -65h-25q-43 38 -65 38q-44 -6 -71 -6q-19 33 -19 45q0 76 104 97zM427 51q39 -14 39 -45q-9 -32 -45 -32q-30 13 -33 26v6q0 45 39 45z" />
    <glyph glyph-name="quotedbl" unicode="&#x22;" horiz-adv-x="584" 
d="M402 774q-2 -78 -57 -78q-43 0 -43 72q0 55 3 100q5 66 53 66q44 0 44 -74v-86zM266 774q-2 -78 -58 -78q-44 0 -44 72q0 55 3 100q5 66 56 66q43 0 43 -74v-86z" />
    <glyph glyph-name="numbersign" unicode="#" 
d="M998 563q0 -24 -18 -41q-19 -18 -47 -18h-131l-34 -194h127q30 0 48 -19q18 -20 18 -44t-18 -41q-19 -18 -48 -18h-150l-33 -189h-103l34 189h-279l-33 -189h-104l36 189h-143v122h165l34 194h-161v122h185l25 134q8 50 58 50q39 0 39 -56q0 -4 -2 -16l-21 -112h282
l25 134q8 50 52 50q46 0 46 -56q0 -4 -3 -16l-21 -112h110q30 0 48 -19q17 -20 17 -44zM701 504h-280l-33 -194h278z" />
    <glyph glyph-name="dollar" unicode="$" horiz-adv-x="949" 
d="M825 233q0 -103 -89 -160q-77 -51 -210 -58v-89h-107v98q-195 30 -335 153q20 33 61 99q140 -98 274 -131v228q-144 25 -206 60q-91 51 -91 149q0 105 87 167q76 54 210 68v46q0 25 16 39t38 14q21 0 37 -14t16 -39v-47q291 -26 291 -136q0 -22 -19 -39q-20 -16 -48 -16
q-5 0 -55 24q-65 31 -169 46v-215q141 -27 212 -77q87 -62 87 -170zM419 495v200q-76 -14 -127 -39q-49 -28 -49 -62q0 -67 176 -99zM702 236q0 83 -176 120v-219q75 5 122 29q54 27 54 70z" />
    <glyph glyph-name="percent" unicode="%" 
d="M967 748q0 -28 -20 -45l-756 -704l-87 87l756 705q21 19 44 19q25 0 43 -19q20 -19 20 -43zM275 925q12 0 41 -41q0 -57 -57 -57q-41 11 -41 57q12 41 57 41zM119 852h32q13 0 32 -34q0 -43 -32 -56h-32q-34 13 -34 56q0 15 34 34zM392 878h42q11 0 24 -25v-40
q0 -12 -24 -25h-33q-13 0 -33 33v32q0 12 24 25zM269 772q139 -22 139 -106v-32q0 -65 -41 -82h-32q-55 48 -82 48q-56 -8 -91 -8q-24 42 -24 58q0 95 131 122zM499 767q48 -19 48 -57q-12 -41 -57 -41q-38 15 -41 32v9q0 57 50 57zM779 322q13 0 42 -41q0 -57 -57 -57
q-41 10 -41 57q11 41 56 41zM623 249h32q13 0 33 -34q0 -43 -33 -56h-32q-33 13 -33 56q0 14 33 34zM897 275h41q11 0 25 -25v-40q0 -12 -25 -25h-33q-12 0 -33 33v32q0 12 25 25zM773 170q139 -23 139 -108v-31q0 -65 -41 -82h-32q-55 48 -82 48q-56 -8 -90 -8
q-24 42 -24 58q0 95 130 123zM1002 164q50 -20 50 -58q-13 -40 -58 -40q-38 16 -41 32v8q0 58 49 58z" />
    <glyph glyph-name="ampersand" unicode="&#x26;" horiz-adv-x="913" 
d="M856 63l-78 -83q-40 24 -144 99q-127 -82 -277 -82q-117 0 -195 44q-95 55 -95 165q0 123 154 227q-73 111 -73 190q0 86 82 137q73 48 180 48q75 0 147 -45q85 -55 85 -136q0 -65 -70 -118q-48 -38 -180 -101l234 -185q52 65 80 115q18 31 53 31q22 0 45 -16
q19 -14 19 -38q0 -13 -7 -26q-41 -71 -94 -133q93 -68 134 -93zM517 627q0 36 -35 56q-30 17 -72 17q-49 0 -87 -16q-52 -20 -52 -61q0 -49 55 -133l114 56q77 45 77 81zM536 147l-247 202q-100 -71 -100 -143q0 -102 168 -102q85 0 179 43z" />
    <glyph glyph-name="quotesingle" unicode="'" horiz-adv-x="532" 
d="M364 855q0 -38 -45 -74l-87 -70l-56 50l77 101q30 38 58 38q21 0 37 -13t16 -32z" />
    <glyph glyph-name="parenleft" unicode="(" 
d="M843 -94q0 -17 -16 -30q-15 -12 -36 -12q-42 0 -83 35q-90 75 -133 226q-35 121 -35 262q0 143 35 270q45 159 133 233q41 35 83 35q21 0 36 -12q16 -13 16 -30q0 -22 -17 -42q-16 -15 -31 -31q-132 -145 -132 -420q0 -128 24 -217q32 -110 108 -195q15 -15 31 -30
q17 -20 17 -42zM349 252q8 0 29 -28q0 -40 -39 -40q-29 9 -29 40q8 28 39 28zM241 202h22q9 0 23 -23q0 -31 -23 -40h-22q-23 9 -23 40q0 9 23 23zM431 220h29q7 0 16 -17v-29q0 -7 -16 -16h-24q-8 0 -22 22v23q0 8 17 17zM346 147q95 -16 95 -74v-23q0 -44 -28 -56h-23
q-38 34 -56 34q-39 -6 -63 -6q-16 28 -16 40q0 66 91 85zM504 142q34 -13 34 -39q-9 -27 -40 -27q-26 10 -28 21v6q0 39 34 39zM857 618q8 0 29 -27q0 -39 -39 -39q-30 7 -30 39q8 27 40 27zM749 569h22q8 0 23 -23q0 -31 -23 -39h-22q-23 8 -23 39q0 9 23 23zM939 587h28
q8 0 17 -18v-27q0 -8 -17 -18h-23q-9 0 -22 24v21q0 9 17 18zM853 514q96 -16 96 -74v-22q0 -44 -28 -57h-23q-38 33 -56 33q-39 -5 -63 -5q-16 29 -16 40q0 66 90 85zM1012 510q34 -13 34 -40q-9 -28 -40 -28q-26 11 -29 23v5q0 40 35 40z" />
    <glyph glyph-name="parenright" unicode=")" 
d="M276 -47q16 15 31 31q76 84 109 194q24 89 24 217q0 275 -133 420q-15 16 -31 31q-17 20 -17 42q0 17 16 30q16 12 37 12q42 0 83 -35q88 -74 132 -233q35 -127 35 -270q0 -141 -35 -262q-43 -152 -132 -226q-41 -35 -83 -35q-21 0 -37 12q-16 13 -16 30q0 22 17 42z
M793 229q0 -32 -29 -40q-40 0 -40 40q20 28 29 28q31 0 40 -28zM885 184q0 -30 -24 -40h-21q-24 10 -24 40q14 23 24 23h21q24 -14 24 -23zM689 208v-23q-14 -22 -23 -22h-23q-16 8 -16 16v29q8 17 16 17h29q17 -9 17 -17zM847 67q0 -12 -17 -40q-23 0 -62 6q-18 0 -56 -34
h-22q-30 12 -30 56v23q0 58 97 74q90 -19 90 -85zM633 108v-6q-2 -11 -29 -21q-32 0 -39 27q0 26 33 39q35 0 35 -39zM285 596q0 -32 -29 -40q-39 0 -39 40q21 28 29 28q30 0 39 -28zM377 551q0 -31 -23 -39h-22q-23 8 -23 39q14 23 23 23h22q23 -14 23 -23zM181 574v-21
q-14 -24 -22 -24h-24q-16 10 -16 18v27q9 18 16 18h29q17 -9 17 -18zM340 434q0 -11 -16 -40q-24 0 -63 5q-18 0 -56 -33h-23q-28 13 -28 57v22q0 58 96 74q90 -19 90 -85zM125 475v-6q-2 -11 -28 -22q-31 0 -40 28q0 27 34 39q34 0 34 -39z" />
    <glyph glyph-name="asterisk" unicode="*" horiz-adv-x="798" 
d="M699 526q0 -27 -34 -55q-25 -14 -169 -95l152 -158l-87 -92l-169 158l-167 -158l-88 92l166 165l-161 85q-51 28 -51 62q0 67 68 67q36 0 181 -79q-9 108 -9 117q0 53 9 77q15 29 58 29q62 0 67 -76l6 -150l97 57q40 24 63 24q68 0 68 -70z" />
    <glyph glyph-name="plus" unicode="+" horiz-adv-x="925" 
d="M826 415q0 -66 -88 -66q-23 0 -217 -5q11 -241 10 -310h-121q1 69 -10 305q-248 -8 -315 -16v118q93 11 308 25l-13 194q-3 36 -3 47q0 31 17 48q17 19 42 19q58 0 63 -55q6 -67 16 -247q105 3 185 3q57 0 80 -6q46 -13 46 -54z" />
    <glyph glyph-name="comma" unicode="," horiz-adv-x="600" 
d="M382 33q0 -70 -31 -136l-84 12l33 113q-25 -23 -75 -23q-34 0 -51 23q-19 19 -19 52q0 40 29 68q31 25 75 25q123 0 123 -134z" />
    <glyph glyph-name="hyphen" unicode="-" 
d="M907 424q0 -28 -19 -46q-25 -23 -69 -23q-110 0 -345 -11q-231 -9 -308 -16v123q274 35 615 35q57 0 80 -6q46 -14 46 -56z" />
    <glyph glyph-name="period" unicode="." horiz-adv-x="681" 
d="M315 287q12 0 38 -37q0 -52 -52 -52q-38 10 -38 52q11 37 52 37zM173 221h29q12 0 30 -31q0 -39 -30 -52h-29q-31 13 -31 52q0 13 31 31zM423 245h38q9 0 21 -23v-37q0 -11 -21 -22h-31q-11 0 -31 30v29q0 11 24 23zM310 148q127 -20 127 -97v-29q0 -59 -39 -75h-28
q-51 45 -75 45q-50 -8 -82 -8q-23 38 -23 53q0 87 120 111zM519 143q44 -17 44 -52q-10 -37 -52 -37q-34 15 -37 30v7q0 52 45 52z" />
    <glyph glyph-name="slash" unicode="/" horiz-adv-x="679" 
d="M575 743q0 -13 -31 -68l-377 -681l-88 87l390 705q9 19 43 19q24 0 43 -19q20 -19 20 -43z" />
    <glyph glyph-name="zero" unicode="0" horiz-adv-x="1018" 
d="M926 449q0 -195 -123 -323q-125 -127 -319 -127q-176 0 -296 93q-130 103 -130 269q0 210 127 330q127 119 339 119q157 0 278 -103q124 -106 124 -258zM803 439q0 128 -109 193q-85 55 -206 55q-140 0 -223 -89q-83 -90 -83 -233q0 -128 111 -193q83 -49 203 -49
q139 0 224 92q83 89 83 224zM102 946l56 -5q135 -79 227 -161q-158 -192 -282 -181q-33 54 -57 293q30 56 56 54zM956 877q-24 -239 -57 -293q-125 -12 -282 181q92 82 228 161l54 5q28 2 57 -54zM244 388q14 -95 96 -95h26q95 0 95 108q-30 98 -109 98q-108 -16 -108 -111z
M521 401q0 -62 72 -108h50q96 0 96 97q-14 109 -109 109q-78 0 -109 -98zM388 385q0 -14 -10.5 -22t-25.5 -8q-12 0 -21.5 10t-9.5 22t11.5 23t25.5 11q13 0 21.5 -12t8.5 -24zM663 390q0 -14 -11 -22t-25 -8q-13 0 -22.5 10t-9.5 22t11.5 23t25.5 11q12 0 21.5 -11.5
t9.5 -24.5z" />
    <glyph glyph-name="one" unicode="1" horiz-adv-x="462" 
d="M311 25h-133q-5 213 -19 716q-2 84 65 84q64 0 66 -83z" />
    <glyph glyph-name="two" unicode="2" horiz-adv-x="954" 
d="M816 152q0 -29 -20 -44q-81 -64 -178 -88q-78 -21 -201 -21q-92 0 -157 26q-89 37 -89 114q0 86 126 168q118 63 235 125q127 69 127 125q0 61 -69 99q-60 32 -122 32q-127 0 -205 -37q-79 -37 -123 -119l-109 52q54 114 166 172q102 54 239 54q148 0 240 -57
q106 -66 106 -197q0 -96 -123 -184q-59 -44 -224 -126q-121 -60 -121 -87q0 -36 129 -36q116 0 225 47q8 3 41 26q26 17 45 17q27 0 45 -19q17 -20 17 -42zM142 1000l55 -12q125 -94 205 -187q-179 -171 -301 -146q-26 58 -21 298q36 53 62 47zM910 833q-82 -228 -127 -272
q-123 20 -228 245q109 57 259 101l54 -9q27 -4 42 -65z" />
    <glyph glyph-name="three" unicode="3" horiz-adv-x="825" 
d="M771 266q0 -122 -80 -196q-79 -72 -211 -72q-95 0 -95 59q0 24 14 44q16 19 35 19q91 0 147 28q66 33 66 101q0 103 -168 103q-53 0 -153 -23q-101 -23 -105 -23q-25 0 -45 19q-21 16 -21 34q0 55 40 65q45 13 149 44q205 70 205 144q0 76 -145 76q-124 0 -306 -82
l-57 103q72 44 174 73q101 28 184 28q275 0 275 -198q0 -49 -27 -86q-25 -36 -96 -84q111 -9 168 -60q52 -46 52 -116z" />
    <glyph glyph-name="four" unicode="4" horiz-adv-x="969" 
d="M918 236q-97 -57 -231 -89q0 17 -3 -138h-120q-1 107 -1 119q-55 -9 -120 -9q-395 0 -395 233q0 123 84 254q78 122 191 194q14 10 23 10q27 0 45 -17q20 -16 20 -40q0 -37 -9 -42q-74 -47 -145 -142q-88 -117 -88 -213q0 -61 92 -91q68 -22 150 -22q77 0 158 14
q20 250 64 500q9 53 60 53q53 0 53 -53q0 -11 -27 -209q-26 -197 -26 -273q93 23 184 73z" />
    <glyph glyph-name="five" unicode="5" horiz-adv-x="944" 
d="M883 253q0 -255 -396 -255l-18 118q118 4 179 22q114 33 114 115q0 69 -92 107q-72 32 -160 32q-125 0 -227 -50q-33 -14 -66 -31q-37 -15 -69 -15q-61 0 -78 95q-9 43 -9 136q0 60 18 119q9 35 43 109q24 55 68 55q25 0 60 -40q51 0 140 4q88 4 130 4q53 0 152 -4
t151 -4q24 0 42 -19q18 -18 18 -40q0 -27 -20 -46q-17 -18 -46 -18t-119 4q-92 4 -146 4q-33 0 -168 -4q-116 -4 -175 -2q-24 -77 -24 -127q0 -27 19 -92q130 85 304 85q158 0 257 -58q118 -69 118 -204zM309 212q0 -38 -35 -47q-47 0 -47 47q25 34 35 34q37 0 47 -34z
M419 158q0 -36 -28 -47h-26q-28 11 -28 47q17 27 28 27h26q28 -16 28 -27zM185 186v-26q-17 -28 -27 -28h-28q-19 11 -19 21v33q11 21 19 21h35q20 -10 20 -21zM375 18q0 -13 -20 -48q-28 0 -74 7q-23 0 -68 -40h-27q-34 15 -34 68v27q0 69 115 88q108 -23 108 -102zM119 68
v-7q-3 -14 -35 -26q-37 0 -47 33q0 31 41 47q41 0 41 -47z" />
    <glyph glyph-name="six" unicode="6" horiz-adv-x="972" 
d="M883 315q0 -156 -116 -242q-102 -77 -269 -77q-197 0 -314 64q-148 81 -148 251q0 130 62 248q63 119 172 194q79 55 112 55q26 0 43 -20q17 -18 17 -45t-18 -37q-72 -46 -139 -108q-75 -72 -100 -129q138 87 346 87q151 0 242 -50q110 -63 110 -191zM765 313
q0 64 -86 98q-66 22 -144 22q-92 0 -190 -25q-124 -34 -182 -97q0 -192 349 -192q90 0 161 41q92 52 92 153zM719 946q10 0 33 -31q0 -44 -44 -44q-32 8 -32 44q8 31 43 31zM598 890h25q10 0 25 -26q0 -34 -25 -44h-25q-27 10 -27 44q0 10 27 26zM811 910h33q7 0 18 -19v-32
q0 -8 -18 -18h-27q-10 0 -25 25v25q0 9 19 19zM715 828q108 -17 108 -83v-24q0 -50 -32 -65h-25q-43 38 -65 38q-43 -6 -69 -6q-19 33 -19 45q0 74 102 95zM893 824q38 -15 38 -45q-9 -31 -44 -31q-30 12 -33 25v6q0 45 39 45z" />
    <glyph glyph-name="seven" unicode="7" horiz-adv-x="933" 
d="M889 585q0 -32 -18 -74q-37 -98 -143 -240q-87 -112 -188 -218q-52 -54 -73 -54q-32 0 -52 18q-21 17 -21 44q0 22 25 47q195 193 315 392q35 55 35 90q0 40 -145 73q-117 25 -191 25q-154 0 -382 -61l-21 119q71 27 192 45q122 19 213 19q171 0 282 -35
q172 -56 172 -190z" />
    <glyph glyph-name="eight" unicode="8" horiz-adv-x="1003" 
d="M904 243q0 -128 -128 -194q-105 -55 -259 -55q-164 0 -281 42q-171 59 -171 191q0 107 108 185q-87 71 -87 160q0 126 134 187q104 46 262 46q157 0 262 -43q140 -59 140 -182q0 -81 -84 -169q104 -73 104 -168zM761 578q0 46 -111 77q-89 27 -155 27q-92 0 -172 -24
q-113 -29 -113 -91q0 -56 114 -96q91 -32 165 -32q96 0 169 29q103 36 103 110zM781 243q0 24 -18 47q-19 20 -67 54q-89 -23 -197 -23q-119 0 -218 30q-97 -40 -97 -105q0 -59 134 -99q105 -30 185 -30q83 0 169 28q109 37 109 98zM94 941l56 -5q135 -79 227 -162
q-158 -191 -282 -180q-34 53 -57 293q30 56 56 54zM948 871q-24 -239 -57 -293q-125 -11 -282 181q91 83 228 162l54 5q28 2 57 -55z" />
    <glyph glyph-name="nine" unicode="9" horiz-adv-x="995" 
d="M915 628q0 -28 -21 -47q-20 -18 -42 -18q-27 0 -51 28q-57 66 -145 90q-56 14 -161 14q-108 0 -212 -59q-118 -66 -118 -153q0 -82 98 -122q72 -27 166 -27q66 0 146 20q118 32 202 98q22 40 66 40q15 0 34 -19q16 -18 16 -43q0 -30 -28 -193q-2 -14 -39 -219h-125
q19 114 54 284q-100 -53 -185 -75q-68 -16 -162 -16q-153 0 -251 64q-114 74 -114 212q0 155 163 249q139 81 316 81q208 0 318 -92q75 -63 75 -97zM89 954l55 -5q136 -79 228 -162q-158 -191 -282 -181q-34 54 -57 293q29 57 56 55zM943 918q-24 -239 -57 -293
q-125 -12 -282 181q91 82 227 161l55 5q27 2 57 -54z" />
    <glyph glyph-name="colon" unicode=":" horiz-adv-x="534" 
d="M378 496q0 -105 -114 -105q-44 0 -77 30q-29 31 -29 75q0 49 27 81q30 29 79 29q52 0 84 -28q30 -29 30 -82zM378 105q0 -106 -114 -106q-44 0 -77 30q-29 32 -29 76q0 48 27 79q30 30 79 30q52 0 84 -27q30 -29 30 -82z" />
    <glyph glyph-name="semicolon" unicode=";" horiz-adv-x="527" 
d="M379 496q0 -105 -115 -105q-44 0 -76 30q-29 31 -29 75q0 49 27 81q30 29 78 29q53 0 84 -28q31 -29 31 -82zM382 80q0 -71 -31 -137l-84 13l33 112q-26 -23 -75 -23q-34 0 -51 22q-19 21 -19 54q0 41 31 68q31 25 76 25q120 0 120 -134z" />
    <glyph glyph-name="less" unicode="&#x3c;" 
d="M817 113q0 -65 -78 -65q-27 0 -72 28q-174 103 -341 228q-70 46 -70 102t70 103q51 38 105 75q120 85 236 153q45 27 72 27q78 0 78 -65q0 -26 -30 -43q-48 -27 -310 -197q-41 -27 -41 -53q0 -24 40 -50q99 -68 311 -200q30 -17 30 -43z" />
    <glyph glyph-name="equal" unicode="=" 
d="M907 539q0 -28 -19 -46q-25 -22 -69 -22q-110 0 -345 -11q-231 -10 -308 -18v124q274 36 615 36q57 0 80 -7q46 -14 46 -56zM907 308q0 -28 -19 -46q-25 -23 -69 -23q-110 0 -345 -11q-231 -10 -308 -17v124q274 36 615 36q57 0 80 -9q46 -12 46 -54z" />
    <glyph glyph-name="greater" unicode="&#x3e;" 
d="M817 406q0 -56 -69 -102q-48 -37 -101 -72q-123 -87 -241 -156q-45 -28 -72 -28q-78 0 -78 65q0 26 31 43q105 59 311 200q40 26 40 50q0 26 -41 53q-100 67 -310 197q-31 17 -31 43q0 65 78 65q27 0 72 -27q116 -68 237 -153q53 -37 105 -75q69 -47 69 -103z" />
    <glyph glyph-name="question" unicode="?" horiz-adv-x="591" 
d="M522 572q0 -111 -35 -182q-38 -84 -139 -149q-16 -12 -35 -12q-23 0 -42 20q-17 18 -17 42q0 31 28 49q72 48 98 102q22 46 22 130q0 46 -43 83q-42 37 -95 37q-59 0 -99 -39q-34 -33 -34 -76q0 -77 23 -121q8 -16 8 -31q0 -25 -20 -41q-18 -15 -43 -15q-32 0 -51 33
q-36 73 -36 175q0 92 69 161q73 72 183 72q96 0 174 -65q84 -72 84 -173zM266 181q8 0 29 -29q0 -41 -41 -41q-30 8 -30 41q9 29 42 29zM153 129h23q9 0 24 -24q0 -31 -24 -40h-23q-24 9 -24 40q0 10 24 24zM350 147h30q8 0 17 -18v-29q0 -8 -17 -17h-24q-9 0 -23 23v23
q0 9 17 18zM261 72q100 -17 100 -77v-24q0 -46 -29 -58h-24q-40 35 -59 35q-40 -6 -65 -6q-17 29 -17 42q0 68 94 88zM426 68q35 -15 35 -41q-8 -30 -41 -30q-27 11 -30 23v7q0 41 36 41z" />
    <glyph glyph-name="at" unicode="@" 
d="M1006 122q0 -25 -28 -42q-145 -81 -421 -81q-209 0 -345 105q-141 109 -141 286q0 161 135 285q144 135 358 135q188 0 305 -81q135 -91 135 -261q0 -90 -53 -174q-59 -96 -149 -96q-37 0 -65 14q-20 13 -50 48q-101 -70 -189 -70q-104 0 -158 53q-54 52 -54 141
q0 105 73 179q75 73 196 73q197 0 197 -77q0 -51 -66 -51q-16 0 -56 12q-39 12 -75 12q-58 0 -98 -32q-48 -41 -48 -116q0 -90 89 -90q43 0 93 35q52 32 72 83q13 35 54 35q25 0 44 -13t19 -37q0 -9 -4 -19q-4 -16 -20 -42q30 -25 51 -25q33 0 55 59q21 49 21 98
q0 116 -85 178q-86 61 -234 61q-161 0 -269 -102q-104 -95 -104 -215q0 -130 102 -208q100 -79 264 -79q238 0 353 64q18 9 35 9q23 0 42 -16q19 -17 19 -38z" />
    <glyph glyph-name="A" unicode="A" horiz-adv-x="961" 
d="M914 11h-124q-5 372 -130 570q-33 53 -59 75q-41 33 -97 33q-71 0 -154 -117q-70 -98 -109 -219l230 -37q56 -9 56 -70q0 -19 -17 -36q-18 -16 -41 -16q-45 0 -265 42q-24 -80 -50 -225h-119q23 201 87 379q75 212 187 328q88 92 191 92q112 0 197 -80q115 -108 170 -331
q45 -176 47 -388z" />
    <glyph glyph-name="B" unicode="B" horiz-adv-x="905" 
d="M859 238q0 -113 -96 -179q-87 -59 -209 -59q-192 0 -296 61l44 110q114 -47 257 -47q62 0 114 28q64 33 64 87q0 60 -55 91q-44 22 -108 22q-21 0 -38 19q-19 16 -19 42q0 27 19 47q18 17 43 17q136 0 136 100q0 58 -72 90q-56 24 -122 24q-152 0 -327 -97
q-27 -154 -27 -366q0 -83 13 -214h-126q-10 74 -10 233q0 295 65 521q14 44 63 44q22 0 32 -10q12 -11 32 -56q117 66 276 66q137 0 224 -55q102 -65 102 -188q0 -83 -67 -156q88 -75 88 -175zM164 987l45 -15q97 -96 156 -186q-174 -127 -276 -91q-16 53 15 259
q37 41 60 33zM788 965q32 -207 16 -259q-102 -36 -276 91q60 89 156 185l45 16q23 8 59 -33z" />
    <glyph glyph-name="C" unicode="C" horiz-adv-x="878" 
d="M834 152q0 -27 -39 -57q-123 -96 -308 -96q-182 0 -313 93q-142 104 -142 275q0 195 131 319t324 124q181 0 291 -92q42 -32 42 -61q0 -23 -22 -43q-20 -19 -40 -19q-17 0 -41 19q-57 48 -110 61q-42 13 -125 13q-137 0 -234 -97q-96 -96 -96 -233q0 -117 133 -187
q98 -50 195 -50q152 0 259 84q12 8 41 8q20 0 38 -18q16 -20 16 -43z" />
    <glyph glyph-name="D" unicode="D" horiz-adv-x="933" 
d="M889 400q0 -202 -116 -303q-109 -98 -307 -98q-101 0 -188 31l25 117q106 -25 208 -25q114 0 182 71q72 75 72 213q0 140 -75 212q-72 71 -205 71q-46 0 -161 -32q-112 -31 -150 -51q-8 -102 -8 -204q0 -127 20 -390h-121q-20 195 -20 356q0 260 27 394q9 47 69 47
q34 0 60 -72q165 73 307 73q179 0 283 -117q98 -111 98 -293zM145 985l45 -16q97 -96 156 -185q-174 -128 -276 -92q-17 53 16 259q37 41 59 34zM831 935q9 -209 -14 -259q-105 -25 -263 122q69 82 176 166l46 11q24 5 55 -40z" />
    <glyph glyph-name="E" unicode="E" horiz-adv-x="922" 
d="M871 93q-96 -61 -213 -79q-71 -13 -226 -13q-206 0 -290 66q-94 70 -94 259q0 157 65 350l-63 -1v122q56 0 184 3q120 3 184 3q61 0 188 -3t189 -3q20 0 38 -18q15 -17 15 -39q0 -67 -60 -67q-35 0 -122 4q-88 6 -126 6q-28 0 -310 -6l-37 -182q104 -9 211 -17
q165 -11 209 -11q24 0 40 -17q18 -16 18 -43q0 -28 -18 -47q-17 -16 -43 -16q-167 0 -437 28q0 -147 76 -203q63 -45 201 -45q119 0 191 12q73 17 179 62z" />
    <glyph glyph-name="F" unicode="F" horiz-adv-x="941" 
d="M900 733q0 -61 -62 -61q-11 0 -122 4q-115 5 -165 5q-117 0 -284 -6q-15 -147 -15 -266q182 -16 246 -16q27 0 85 4q57 4 87 4q58 0 58 -61q0 -40 -30 -54q-31 -17 -151 -17q-156 0 -292 26q0 -200 5 -279l-120 -2q-11 171 -11 404q0 117 13 255q-6 0 -111 -2l-2 124
q473 11 453 11q218 0 372 -14q17 -4 31 -22q15 -17 15 -37z" />
    <glyph glyph-name="G" unicode="G" horiz-adv-x="917" 
d="M858 657q0 -22 -18 -39q-19 -16 -49 -16q-11 0 -26 10q-108 65 -115 67q-47 20 -136 20q-150 0 -249 -88q-105 -92 -105 -241q0 -114 89 -181q79 -58 189 -58q67 0 125 29q49 22 57 22q23 0 43 -17q19 -18 19 -43q0 -61 -98 -91q-70 -23 -148 -23q-166 0 -279 95
q-118 103 -118 262q0 196 133 328q133 127 324 127q103 0 171 -19q64 -20 151 -76q40 -25 40 -68zM869 54q0 -15 -15 -28q-18 -17 -46 -17q-26 0 -42 19q-17 16 -17 31v166q0 57 -25 79q-29 27 -101 27q-84 0 -220 -29l-20 123q117 26 242 26q129 0 181 -34q63 -41 63 -160
v-203zM129 954l47 -6q117 -70 195 -143q-140 -165 -247 -153q-29 47 -45 255q26 49 50 47zM787 957q33 -206 17 -259q-103 -36 -276 92q59 89 156 185l45 15q22 8 58 -33z" />
    <glyph glyph-name="H" unicode="H" horiz-adv-x="944" 
d="M885 249l-1 -238h-128q0 61 4 280q1 83 -11 251q-12 174 -12 198q0 70 54 70q61 0 66 -51q10 -97 20 -281q8 -169 8 -229zM683 388q0 -26 -19 -45q-20 -17 -43 -17q-36 0 -141 3q-105 4 -128 4q-48 0 -183 -12v-312h-122v440q0 137 20 304q1 19 22 38q22 19 42 19
q23 0 40 -18t17 -46q0 -8 -8 -132q-10 -122 -10 -169q37 0 119 4t102 4q60 0 139 -2q80 -2 100 -2q17 0 36 -18q17 -18 17 -43z" />
    <glyph glyph-name="I" unicode="I" horiz-adv-x="788" 
d="M753 76q0 -18 -15 -34q-13 -15 -31 -18q-98 -15 -303 -15q-281 0 -378 26l1 118q174 -20 278 -20q0 61 -3 151q-4 90 -4 133q0 38 4 122q2 85 2 143q-100 -11 -252 -12l-3 120q119 10 275 10q210 0 348 -19q57 -7 57 -62q0 -57 -66 -57q-39 0 -108 6q-82 10 -127 23
q-10 -389 1 -554q68 -8 154 0q93 9 110 9q29 0 45 -23q15 -20 15 -47z" />
    <glyph glyph-name="J" unicode="J" horiz-adv-x="949" 
d="M912 726q0 -27 -17 -44q-17 -19 -38 -19q-30 0 -176 17q39 -171 39 -304q0 -193 -81 -283q-85 -94 -274 -94q-181 0 -333 160q29 39 76 93q128 -132 262 -132q135 0 186 73q40 56 40 187q0 175 -45 295q-143 0 -178 -2q-126 -6 -340 -21v121q198 27 497 27q107 0 227 -9
q123 -9 109 -9q17 0 32 -17q14 -16 14 -39z" />
    <glyph glyph-name="K" unicode="K" horiz-adv-x="845" 
d="M804 68q0 -33 -18 -51q-19 -18 -40 -18q-14 0 -139 43q-263 91 -437 225l17 -256h-126q-11 103 -11 289q0 303 39 457q14 53 68 53q55 0 55 -61q0 -13 -17 -120q-8 -32 -16 -66q-5 -39 -5 -106q53 64 194 166q140 103 261 165q41 21 67 21t43 -16q16 -16 16 -43
q0 -37 -17 -45q-146 -85 -214 -128q-122 -80 -196 -150q-42 -38 -42 -67q0 -30 60 -65q188 -108 424 -179q12 -4 23 -18q11 -16 11 -30z" />
    <glyph glyph-name="L" unicode="L" horiz-adv-x="884" 
d="M838 101q-182 -102 -452 -102q-347 0 -347 376q0 97 16 204q22 123 58 196q16 35 49 35q63 0 63 -60q0 -22 -31 -132q-34 -115 -34 -258q0 -238 241 -238q122 0 213 23q74 18 187 68zM361 650h12q40 -28 74 -63l29 6h71q85 34 127 34h5q8 0 18 -18q-12 -68 -35 -97l6 -30
v-41q0 -99 -168 -126q-162 26 -162 126q0 25 5 65q-11 73 -11 81q11 63 29 63zM367 449q8 -53 53 -53h13q53 0 53 60q-17 53 -60 53q-59 -9 -59 -60zM519 456q0 -35 39 -60h28q52 0 52 54q-7 59 -59 59q-43 0 -60 -53zM720 344h29q12 -2 12 -11v-12q-105 0 -105 -64
q35 -52 35 -76v-5q0 -11 -12 -11h-17q-95 75 -180 75h-17q-84 -12 -92 -12l-12 18v6q0 49 63 57q62 -12 82 -12q18 0 75 18q42 -29 52 -35q24 64 87 64zM445 446q0 -8 -5.5 -12t-13.5 -4q-6 0 -11.5 5t-5.5 12q0 8 6.5 13.5t13.5 5.5t11.5 -6t4.5 -14zM596 450
q0 -9 -5.5 -13t-13.5 -4q-7 0 -12.5 5t-5.5 13q0 7 6.5 12.5t14.5 5.5q7 0 11.5 -6t4.5 -13z" />
    <glyph glyph-name="M" unicode="M" horiz-adv-x="897" 
d="M851 421q0 -145 -22 -385h-120q20 217 20 352q0 46 -4 106q-3 62 -3 63q0 61 -52 61q-22 0 -106 -92q-85 -91 -127 -91q-41 0 -127 81q-85 79 -101 79q-43 0 -43 -94q0 -248 23 -490h-118q-34 197 -26 527q7 272 111 272q29 0 142 -105q7 -9 135 -138q94 98 132 131
q100 90 153 90q90 0 119 -144q14 -71 14 -223z" />
    <glyph glyph-name="N" unicode="N" horiz-adv-x="866" 
d="M828 343q0 -143 -17 -209q-32 -125 -131 -125q-113 0 -248 191q-82 114 -165 287q-12 30 -22 59q-19 41 -35 41q-19 0 -32 -39q-14 -41 -14 -79q0 -25 -2 -96q-3 -73 -3 -115q0 -113 15 -247h-123q-17 139 -17 321q0 146 22 263q40 193 129 193q73 0 148 -135
q36 -75 129 -258q117 -220 185 -220q22 0 38 59q14 60 14 140q0 90 -32 226q-30 131 -30 146q0 64 44 64q29 0 45 -8q13 -7 26 -35q29 -68 53 -207q23 -131 23 -217z" />
    <glyph glyph-name="O" unicode="O" horiz-adv-x="891" 
d="M835 412q0 -184 -109 -299q-110 -115 -286 -115q-183 0 -296 113q-112 113 -112 295q0 178 113 291q114 113 288 113q175 0 288 -113q114 -113 114 -285zM713 413q0 118 -77 199q-77 80 -190 80q-117 0 -200 -71q-93 -80 -93 -217q0 -135 89 -213q79 -70 195 -70
q124 0 201 81q75 81 75 211zM105 941l48 -6q114 -75 190 -151q-145 -159 -252 -144q-28 48 -38 257q29 47 52 44zM841 864q-22 -208 -51 -254q-108 -9 -244 158q80 72 197 139l49 5q23 1 49 -48z" />
    <glyph glyph-name="P" unicode="P" horiz-adv-x="891" 
d="M848 478q0 -377 -386 -377q-95 0 -200 49l27 110q99 -37 189 -37q138 0 197 76q47 61 47 181q0 128 -79 173q-59 35 -202 35q-54 0 -142 -31q-87 -29 -129 -59q0 -61 -3 -164q-3 -104 -3 -151q0 -110 17 -274h-126q-14 177 -14 447q0 155 43 303q15 51 59 51q32 0 78 -57
q34 26 125 42q80 15 146 15q164 0 258 -84q98 -88 98 -248z" />
    <glyph glyph-name="Q" unicode="Q" horiz-adv-x="951" 
d="M897 110l-70 -95q-27 14 -126 71q-111 -88 -254 -88q-182 0 -295 113q-114 113 -114 295q0 178 114 291q113 113 285 113q176 0 289 -113q112 -113 112 -285q0 -115 -55 -228q48 -31 114 -74zM718 413q0 118 -78 199q-77 80 -187 80q-119 0 -201 -71q-92 -80 -92 -217
q0 -135 89 -213q79 -70 194 -70q51 0 146 32l-129 76q-23 15 -23 49q0 22 19 43q18 18 39 18q26 0 182 -90q41 89 41 164zM120 953l47 -7q116 -73 191 -147q-142 -161 -249 -148q-27 48 -39 256q27 48 50 46zM846 872q-26 -207 -56 -254q-108 -6 -240 164q81 70 200 136
l48 3q23 1 48 -49z" />
    <glyph glyph-name="R" unicode="R" horiz-adv-x="900" 
d="M851 488q0 -73 -28 -135q-29 -59 -95 -126q76 -89 110 -165l-109 -53q-31 60 -104 176q-77 -18 -146 -18q-114 0 -220 54q11 40 37 117q101 -48 180 -48q252 0 252 198q0 195 -210 195q-193 0 -336 -61q-24 -100 -24 -203q0 -172 27 -416h-124q-23 183 -23 380
q0 118 10 196q7 62 32 173q12 53 57 53q26 0 41 -18q8 -10 24 -42q113 60 320 60q154 0 241 -82q88 -83 88 -235z" />
    <glyph glyph-name="S" unicode="S" horiz-adv-x="806" 
d="M766 214q0 -108 -93 -166q-81 -52 -202 -52q-261 0 -445 163q19 34 61 100q109 -78 184 -108q86 -32 197 -32q57 0 110 23q66 28 66 77q0 83 -151 116q-140 29 -279 57q-151 50 -151 176q0 121 109 185q91 54 230 54q127 0 215 -21q142 -36 142 -119q0 -22 -20 -39
q-19 -17 -48 -17q-5 0 -38 15q-19 11 -39 20q-91 38 -220 38q-61 0 -131 -28q-79 -33 -79 -76q0 -63 152 -93q232 -45 278 -65q152 -63 152 -208z" />
    <glyph glyph-name="T" unicode="T" horiz-adv-x="954" 
d="M910 716q0 -23 -18 -41q-18 -16 -45 -16q2 0 -121 9q-121 12 -217 12l-4 -357q0 -146 16 -312h-126q-13 154 -13 306q0 108 2 357q-178 0 -312 -15v121q143 20 319 20q197 0 225 -1q132 -2 232 -17q62 -9 62 -66zM148 295q10 0 30 -29q0 -40 -40 -40q-29 7 -29 40
q9 29 39 29zM39 244h22q10 0 24 -24q0 -31 -24 -40h-22q-24 9 -24 40q0 9 24 24zM231 262h30q7 0 17 -17v-29q0 -8 -17 -17h-23q-10 0 -24 23v23q0 8 17 17zM144 187q99 -16 99 -74v-23q0 -46 -30 -58h-23q-37 35 -57 35q-39 -7 -63 -7q-17 30 -17 41q0 68 91 86zM306 183
q34 -13 34 -40q-8 -28 -40 -28q-27 11 -29 22v6q0 40 35 40zM736 530q8 0 29 -28q0 -40 -40 -40q-29 7 -29 40q9 28 40 28zM626 479h22q9 0 24 -23q0 -31 -24 -40h-22q-24 9 -24 40q0 9 24 23zM819 498h29q7 0 17 -18v-28q0 -9 -17 -18h-24q-9 0 -22 24v22q0 8 17 18z
M732 423q97 -16 97 -75v-22q0 -46 -28 -59h-23q-39 35 -58 35q-39 -6 -64 -6q-16 30 -16 41q0 67 92 86zM893 419q35 -13 35 -40q-9 -29 -40 -29q-28 11 -30 23v6q0 40 35 40z" />
    <glyph glyph-name="U" unicode="U" horiz-adv-x="858" 
d="M826 365q0 -204 -95 -285q-86 -73 -292 -73q-243 0 -333 101q-76 89 -76 326q0 178 63 331q20 53 55 53q67 0 67 -61q0 -5 -30 -95q-29 -94 -29 -192q0 -152 9 -203q16 -77 76 -107q60 -31 201 -31q170 0 222 69q39 53 39 216q0 110 -30 233q-8 27 -17 56q-11 45 -11 54
q0 27 17 44q19 17 47 17q36 0 60 -46q57 -124 57 -407z" />
    <glyph glyph-name="V" unicode="V" horiz-adv-x="913" 
d="M878 746q0 -71 -70 -270q-62 -173 -106 -259q-111 -216 -240 -216q-83 0 -183 122q-170 205 -236 506q-18 78 -18 119q0 63 59 63q54 0 61 -42q27 -147 54 -234q41 -131 117 -257q93 -151 158 -151q38 0 78 67q8 17 48 101q107 228 163 483q7 34 55 34q24 0 41 -18
q19 -21 19 -48z" />
    <glyph glyph-name="W" unicode="W" horiz-adv-x="949" 
d="M901 294q0 -120 -57 -203q-63 -92 -169 -92q-68 0 -107 19q-51 23 -89 88q-50 -107 -196 -107q-127 0 -192 114q-56 95 -56 241q0 170 87 392q24 64 61 64q28 0 48 -17q21 -17 21 -39q0 -14 -19 -68q-74 -210 -74 -332q0 -70 25 -141q36 -91 99 -91q49 0 91 30
q48 32 48 80q0 63 59 63q23 0 43 -17q21 -19 21 -33q0 -51 37 -86q35 -37 91 -37q53 0 83 67q25 54 25 117q0 85 -48 198q-44 108 -106 187q-13 15 -13 48q0 18 22 35q19 17 44 17q32 0 81 -60q50 -66 95 -204q45 -137 45 -233z" />
    <glyph glyph-name="X" unicode="X" horiz-adv-x="913" 
d="M867 750q0 -32 -14 -44q-103 -90 -319 -298l324 -320l-89 -76l-328 311l-304 -310l-102 70l309 317q-93 87 -271 244q-38 30 -38 49q0 74 60 74q32 0 84 -50q75 -73 255 -231q51 57 98 102q112 110 175 158q47 38 48 39q32 23 56 23q18 0 38 -20q18 -18 18 -38z" />
    <glyph glyph-name="Y" unicode="Y" horiz-adv-x="905" 
d="M867 744q0 -194 -82 -321q-99 -154 -307 -189l20 -220h-127l-18 229q-150 30 -241 174q-82 130 -82 303q0 95 64 95q26 0 42 -16q18 -17 18 -44q0 -157 46 -254q65 -141 219 -141q176 0 259 123q68 103 68 275q0 24 17 41q15 16 41 16q63 0 63 -71z" />
    <glyph glyph-name="Z" unicode="Z" horiz-adv-x="845" 
d="M809 109q0 -16 -16 -34q-29 -33 -159 -55q-110 -19 -199 -19q-127 0 -235 35q-153 48 -153 148q0 109 151 214q84 60 278 150q152 68 152 91q0 51 -176 51q-200 0 -405 -39q-8 45 -21 116q65 23 195 34q117 12 226 12q131 0 220 -27q137 -42 137 -140q0 -71 -160 -159
q-149 -71 -298 -145q-160 -82 -160 -134q0 -28 115 -57q103 -26 163 -26q89 0 192 28q93 24 87 24q66 0 66 -68z" />
    <glyph glyph-name="bracketleft" unicode="[" horiz-adv-x="556" 
d="M409 -37q0 -79 -143 -79q-95 0 -120 51q-16 31 -16 149v662q0 110 22 149q27 50 114 50q143 0 143 -82q0 -36 -17 -48q-17 -11 -68 -11q-8 0 -25 3q-18 3 -26 3q-20 0 -20 -54v-682q0 -54 20 -54q7 0 25 4q17 3 26 3q46 0 66 -15q19 -12 19 -49z" />
    <glyph glyph-name="backslash" unicode="\" horiz-adv-x="594" 
d="M539 86l-89 -87l-377 681q-31 55 -31 68q0 24 20 43q19 19 44 19q32 0 42 -19z" />
    <glyph glyph-name="bracketright" unicode="]" horiz-adv-x="556" 
d="M408 55q0 -117 -16 -148q-25 -51 -121 -51q-143 0 -143 79q0 36 19 49q20 14 66 14q10 0 27 -3t25 -3q20 0 20 53v682q0 54 -20 54q-9 0 -27 -3q-16 -3 -25 -3q-50 0 -68 12q-17 12 -17 48q0 83 143 83q87 0 116 -52q21 -38 21 -148v-663z" />
    <glyph glyph-name="asciicircum" unicode="^" horiz-adv-x="596" 
d="M481 761q0 -50 -41 -50q-15 0 -60 35q-46 33 -68 33q-23 0 -71 -33q-48 -32 -68 -32q-41 0 -41 51q0 28 67 84q65 55 110 55q44 0 109 -59q63 -55 63 -84z" />
    <glyph glyph-name="underscore" unicode="_" 
d="M1075 -151h-1075v107h1075v-107zM508 635q34 0 59 -194q34 -38 34 -75v-43q0 -151 -260 -201q-131 0 -177 134q0 45 -76 176v18q3 16 17 16h17q50 0 126 -25q0 34 134 68q64 126 126 126zM409 397v-59q0 -12 51 -48h57q14 0 50 48v59q-25 49 -79 49q-53 0 -79 -49z
M651 349l17 -26v-50l-9 -58q58 -35 102 -35h41q126 0 126 102h17q17 -3 17 -17v-9q0 -73 -185 -151q-51 0 -51 -25q76 -12 76 -34q0 -50 -268 -68q-184 0 -303 110l17 25q84 -8 126 -8h24q159 0 237 235zM231 259q8 -79 78 -79h29q59 36 59 88q-32 78 -88 78q-62 0 -78 -87z
M329 250q0 -12 -9.5 -19t-21.5 -7q-10 0 -19 8.5t-9 19.5q0 10 10.5 19.5t21.5 9.5t19 -10.5t8 -20.5zM526 356q0 -12 -9 -18.5t-21 -6.5q-11 0 -19 8t-8 19t9.5 20t22.5 9q10 0 17.5 -10t7.5 -21z" />
    <glyph glyph-name="grave" unicode="`" horiz-adv-x="576" 
d="M395 774l-56 -50l-87 70q-44 36 -44 74q0 19 16 32t37 13q29 0 56 -39z" />
    <glyph glyph-name="a" unicode="a" horiz-adv-x="894" 
d="M851 34l-115 -33l-45 99q-85 -59 -169 -81q-71 -20 -171 -20q-121 0 -200 76t-79 197q0 163 116 256q108 87 277 87q114 0 188 -26q19 -7 32 -24q13 -16 13 -34q0 -26 -18 -48q-20 -20 -44 -20q-4 0 -66 14q-65 15 -110 15q-115 0 -186 -55q-78 -60 -78 -173
q0 -139 165 -139q125 0 205 41q118 61 118 205q0 15 15 31q19 21 43 21q65 0 65 -62v-65q-1 -44 -1 -79q0 -58 45 -183zM81 708l45 -2q114 -58 191 -120q-118 -163 -219 -160q-29 42 -60 234q21 48 43 48zM645 775q48 -190 37 -240q-91 -42 -264 61q47 88 129 186l40 19
q20 9 58 -26z" />
    <glyph glyph-name="b" unicode="b" horiz-adv-x="798" 
d="M757 305q0 -137 -75 -220q-74 -86 -207 -86q-111 0 -216 56q11 38 37 115q101 -49 178 -49q82 0 123 59q36 48 36 121q0 98 -50 142q-47 41 -142 41q-80 0 -147 -33q-58 -27 -127 -90q0 -168 10 -349h-126q-9 94 -9 266q0 112 12 258q15 147 33 234q7 40 55 40
q29 0 47 -17q19 -16 19 -43q0 -4 -13 -75q-13 -75 -18 -159q113 90 275 90q144 0 224 -80q81 -80 81 -221z" />
    <glyph glyph-name="c" unicode="c" horiz-adv-x="827" 
d="M770 166q0 -38 -40 -67q-133 -100 -286 -100q-141 0 -238 79q-105 84 -105 219q0 147 101 234q96 84 247 84q79 0 154 -22q88 -28 125 -78q5 -10 5 -31q0 -20 -20 -39q-20 -18 -41 -18q-16 0 -46 16q-40 22 -66 30q-49 15 -111 15q-92 0 -151 -38q-74 -49 -74 -143
q0 -85 66 -137q58 -47 145 -47q78 0 133 27q23 10 77 47q36 26 66 26q20 0 40 -19q19 -18 19 -38zM663 779q36 -191 23 -241q-94 -37 -261 76q51 85 139 178l42 17q21 7 57 -30zM61 671l45 5q121 -41 207 -91q-94 -179 -194 -191q-35 37 -93 224q14 50 35 53z" />
    <glyph glyph-name="d" unicode="d" horiz-adv-x="819" 
d="M768 349q0 -238 -10 -333h-125q4 55 12 168q6 114 -5 209q-49 44 -122 70q-75 26 -146 26q-92 0 -151 -46q-66 -53 -66 -148q0 -83 59 -129q52 -40 131 -40q43 0 86 26q43 25 66 25q24 0 40 -19q16 -20 16 -48q0 -51 -79 -82q-62 -24 -126 -24q-136 0 -224 78
q-92 82 -92 213q0 147 98 233q93 83 249 83q145 0 258 -87l-13 177q-1 11 -2 34q-1 19 -1 22q0 58 63 58q53 0 58 -55q26 -270 26 -411z" />
    <glyph glyph-name="e" unicode="e" horiz-adv-x="809" 
d="M762 340q0 -28 -11 -41q-11 -11 -38 -18q-45 -12 -153 -16q-63 -1 -167 -4q-77 -5 -212 -5q21 -53 84 -87q69 -40 166 -40q36 0 89 -2q49 -1 72 -1l-9 -123q-268 0 -371 42q-154 65 -154 260q0 141 103 230q100 85 246 85q134 0 237 -69q118 -80 118 -211zM650 368
q-110 129 -237 129q-75 0 -134 -37q-68 -41 -93 -115q53 2 141 8q74 4 94 4q55 0 229 11zM68 720l45 -1q113 -59 191 -121q-119 -163 -219 -160q-30 42 -60 235q21 48 43 47zM707 736q10 -195 -11 -242q-98 -24 -247 111q63 78 162 158l43 10q22 5 53 -37z" />
    <glyph glyph-name="f" unicode="f" horiz-adv-x="695" 
d="M660 440q-1 -25 -18 -43q-18 -16 -46 -14l-229 12v-392h-128v401l-214 11v123l214 -12q3 126 53 198q54 78 157 78q48 0 88 -16q54 -20 54 -61q0 -27 -20 -47q-17 -20 -45 -20q-14 0 -44 10q-26 12 -37 12q-42 0 -62 -56q-17 -41 -17 -106l235 -12q31 -3 45 -21
q16 -18 14 -45z" />
    <glyph glyph-name="g" unicode="g" horiz-adv-x="817" 
d="M775 132q0 -131 -32 -188q-44 -83 -165 -83q-76 0 -135 11v117q37 -5 112 -5q52 0 77 49q17 37 17 89q0 85 -24 339q-31 -10 -46 -10q-18 0 -32 8q-72 44 -163 44q-89 0 -160 -49q-73 -52 -73 -130q0 -65 53 -104q52 -39 135 -39q82 0 132 38q16 13 37 13q24 0 42 -18
q17 -16 17 -41q0 -63 -110 -100q-43 -16 -118 -16q-129 0 -218 71q-93 75 -93 196q0 140 119 227q106 75 237 75q106 0 227 -61q22 55 73 55q50 0 56 -58q11 -106 21 -213q14 -151 14 -217z" />
    <glyph glyph-name="h" unicode="h" horiz-adv-x="933" 
d="M793 341q0 -207 -15 -327h-122q14 118 14 327q0 54 -44 97q-54 50 -143 50q-142 0 -294 -110q-23 -19 -23 -54q0 -123 21 -310h-125q-24 225 -24 333q0 266 21 415q7 53 66 53q25 0 40 -16q17 -19 17 -43q0 2 -6 -79q-5 -89 -7 -166q182 100 314 100q140 0 228 -85
q82 -79 82 -185zM412 285q10 0 32 -32q0 -44 -44 -44q-32 8 -32 44q9 32 44 32zM290 228h24q11 0 26 -26q0 -34 -26 -44h-24q-27 10 -27 44q0 10 27 26zM504 249h33q8 0 18 -20v-31q0 -10 -18 -20h-27q-10 0 -26 26v25q0 9 20 20zM408 166q108 -18 108 -84v-25
q0 -50 -33 -64h-24q-43 38 -65 38q-44 -6 -70 -6q-19 32 -19 45q0 74 103 96zM587 161q38 -15 38 -44q-11 -32 -45 -32q-30 12 -32 25v7q0 44 39 44zM684 955q9 0 33 -31q0 -45 -45 -45q-33 9 -33 45q9 31 45 31zM561 898h26q9 0 25 -26q0 -34 -25 -44h-26q-25 10 -25 44
q0 11 25 26zM776 919h32q8 0 19 -20v-31q0 -10 -19 -19h-26q-10 0 -25 25v25q0 9 19 20zM679 836q108 -18 108 -83v-26q0 -49 -31 -63h-26q-43 37 -63 37q-44 -6 -71 -6q-18 32 -18 45q0 75 101 96zM858 831q38 -15 38 -44q-9 -31 -44 -31q-30 12 -33 24v7q0 44 39 44z" />
    <glyph glyph-name="i" unicode="i" horiz-adv-x="449" 
d="M261 534q-9 -68 -9 -284q0 -11 -3 -125q-1 -89 1 -127h-135q-3 38 -2 124q3 124 3 128q0 232 8 300q2 20 22 37q20 15 49 15q75 0 66 -68zM204 939q9 0 33 -32q0 -44 -46 -44q-31 8 -31 44q8 32 44 32zM81 883h25q11 0 26 -27q0 -34 -26 -44h-25q-26 10 -26 44
q0 10 26 27zM296 903h33q7 0 18 -19v-32q0 -9 -18 -19h-27q-10 0 -26 25v26q0 9 20 19zM200 820q108 -17 108 -84v-24q0 -50 -33 -65h-25q-43 38 -64 38q-44 -6 -70 -6q-19 33 -19 46q0 74 103 95zM378 815q39 -14 39 -44q-10 -32 -45 -32q-30 13 -33 26v6q0 44 39 44z" />
    <glyph glyph-name="j" unicode="j" horiz-adv-x="646" 
d="M573 205q0 -337 -248 -337q-149 0 -296 86l38 112q176 -76 254 -76q77 0 108 73q17 47 17 142q0 80 -22 173q-28 102 -69 163q-8 16 -8 34q0 23 19 42q20 18 45 18q32 0 54 -30q48 -70 78 -190q30 -112 30 -210zM393 985q9 0 33 -31q0 -45 -45 -45q-32 9 -32 45
q8 31 44 31zM270 929h26q10 0 26 -26q0 -35 -26 -45h-26q-25 10 -25 45q0 10 25 26zM485 949h33q7 0 19 -19v-32q0 -9 -19 -19h-26q-11 0 -26 26v25q0 9 19 19zM389 866q109 -17 109 -83v-25q0 -50 -33 -64h-26q-43 38 -63 38q-44 -7 -71 -7q-18 33 -18 46q0 75 102 95z
M567 862q38 -15 38 -45q-9 -31 -44 -31q-30 12 -33 25v6q0 45 39 45z" />
    <glyph glyph-name="k" unicode="k" horiz-adv-x="778" 
d="M743 66q0 -27 -17 -47q-16 -20 -43 -20q-8 0 -18 3q-352 100 -493 274q1 -100 8 -265h-123q-11 112 -11 331q0 248 20 413q5 55 67 55q25 0 42 -19q16 -18 13 -48q-16 -144 -18 -367q99 85 215 140q92 43 240 87q10 3 22 3q25 0 43 -20q17 -20 17 -47q0 -42 -47 -55
q-174 -51 -293 -112q-28 -15 -34 -20q-19 -15 -19 -36q0 -29 44 -57q128 -78 340 -138q45 -13 45 -55z" />
    <glyph glyph-name="l" unicode="l" horiz-adv-x="322" 
d="M243 752q0 -103 -14 -314q-13 -211 -13 -316q0 -76 1 -113h-132q-2 40 -2 143q0 249 1 305q4 173 25 300q9 53 72 53q62 0 62 -58z" />
    <glyph glyph-name="m" unicode="m" horiz-adv-x="897" 
d="M859 380q0 -152 -24 -371h-120q21 223 21 371q0 109 -95 109q-71 0 -118 -67q-19 -26 -30 -34q-16 -13 -43 -13q-33 0 -63 47q-46 67 -103 67q-50 0 -129 -47q-3 -91 -3 -161q0 -148 19 -272h-120q-21 118 -21 272q0 223 9 283q8 51 55 51q34 0 63 -30q74 30 127 30
q103 0 174 -89q77 89 183 89q104 0 164 -71q54 -65 54 -164z" />
    <glyph glyph-name="n" unicode="n" horiz-adv-x="837" 
d="M794 338q0 -207 -16 -329h-122q14 120 14 329q0 56 -43 100q-54 51 -144 51q-88 0 -185 -47q-68 -41 -137 -82q5 -148 26 -351h-124q-26 258 -26 424q0 70 6 125q2 24 17 42q15 15 37 15q68 0 68 -105q185 105 318 105q141 0 229 -87q82 -81 82 -190zM92 742l43 -11
q99 -80 163 -157q-150 -135 -248 -111q-20 47 -10 243q31 40 52 36zM712 731q10 -195 -11 -242q-98 -24 -247 111q63 78 162 158l43 10q22 5 53 -37z" />
    <glyph glyph-name="o" unicode="o" horiz-adv-x="796" 
d="M759 305q0 -144 -106 -227q-99 -79 -264 -79q-149 0 -249 72q-113 83 -113 231q0 135 98 222q101 91 272 91q168 0 268 -88q94 -85 94 -222zM635 305q0 80 -54 129q-62 55 -184 55q-125 0 -189 -58q-57 -51 -57 -129q0 -82 63 -130q64 -47 175 -47q123 0 185 50
q61 48 61 130zM347 992l11 1q16 2 53 -99q52 -23 108 -65q94 11 121 -27l1 -12q1 -10 -90 -93q2 -13 -29 -61q18 14 28 15q15 -22 33 -20q51 17 62 18q50 6 80 -32l2 -12l-18 -2q-34 26 -50 24q-52 -11 -50 -29q16 2 36 -54l5 -47q1 -12 -15 -14q-124 92 -222 81l-23 -3
q-23 -3 -97 -27l-11 -2q-12 -2 -14 10l-1 12q-4 31 29 56l11 1q96 -24 138 -19l40 10l-1 5l-6 -1q-29 -8 -34 -9q-138 -15 -216 140l-4 41q-5 40 64 114q51 99 59 100zM238 766q22 -58 72 -52q43 4 46 65q-6 54 -73 52q-50 -28 -45 -65zM385 712v-7q6 -55 61 -49l8 1
q54 6 48 61l-1 7q-6 54 -62 48l-7 -1q-54 -5 -47 -60zM234 685q8 1 40 -42q2 -18 -44 -29q-23 6 -24 15l-2 18q-1 8 30 38zM444 710q1 -9 -4.5 -14t-13.5 -6q-7 -1 -12.5 4t-6.5 12t4.5 13.5t13.5 7.5q7 1 12.5 -4.5t6.5 -12.5zM296 784q1 -8 -4.5 -13t-13.5 -6t-13.5 4
t-6.5 12t4.5 13.5t13.5 7.5t13.5 -5t6.5 -13z" />
    <glyph glyph-name="p" unicode="p" horiz-adv-x="827" 
d="M784 289q0 -128 -112 -211q-102 -74 -228 -74q-91 0 -157 37l38 117q66 -32 117 -32q84 0 153 49q67 47 67 114q0 104 -61 150q-59 48 -186 48q-108 0 -250 -92q-7 -127 -7 -220q0 -183 16 -328h-123q-16 144 -16 328q0 291 23 386q14 49 58 49q41 0 69 -56
q127 56 230 56q170 0 265 -75q104 -81 104 -246z" />
    <glyph glyph-name="q" unicode="q" horiz-adv-x="806" 
d="M758 559q0 -60 -8 -182q-9 -123 -9 -184q0 -197 10 -338h-124q-10 135 -10 338q0 76 8 223q-90 76 -225 76q-127 0 -184 -46q-61 -46 -61 -149q0 -68 67 -115q69 -49 153 -49q13 0 46 6t46 6q46 0 46 -66q0 -48 -49 -61q-24 -7 -89 -7q-126 0 -230 74q-114 84 -114 212
q0 165 105 245q94 73 264 73q118 0 230 -53q25 55 69 55q23 0 41 -16q18 -17 18 -42z" />
    <glyph glyph-name="r" unicode="r" horiz-adv-x="659" 
d="M566 552q0 -47 -38 -60q-92 -30 -158 -61q-70 -34 -195 -143l11 -282h-126l-26 541q-1 30 17 48q18 17 43 17q64 0 67 -58l6 -105q224 163 334 163q23 0 44 -17q21 -20 21 -43zM403 303q11 0 34 -34q0 -46 -46 -46q-35 8 -35 46q11 34 47 34zM274 244h27q10 0 28 -28
q0 -36 -28 -47h-27q-27 11 -27 47q0 11 27 28zM500 265h35q8 0 19 -20v-34q0 -9 -19 -21h-28q-10 0 -28 28v27q0 9 21 20zM398 178q115 -18 115 -88v-25q0 -54 -35 -68h-25q-45 40 -68 40q-46 -7 -75 -7q-19 35 -19 48q0 78 107 100zM587 173q40 -15 40 -46q-11 -34 -47 -34
q-31 13 -34 27v7q0 46 41 46z" />
    <glyph glyph-name="s" unicode="s" horiz-adv-x="659" 
d="M624 165q0 -88 -84 -131q-69 -35 -178 -35q-79 0 -186 59q-102 54 -156 122l79 74q45 -44 118 -83q85 -46 145 -46q135 0 135 45q0 39 -102 64q-153 38 -187 55q-102 46 -102 137q0 84 93 139q81 49 179 49q136 0 223 -87q21 -19 21 -44q0 -24 -21 -44q-18 -19 -44 -19
q-23 0 -45 19q-52 49 -134 49q-146 0 -146 -65q0 -37 102 -63q152 -38 187 -55q103 -49 103 -140z" />
    <glyph glyph-name="t" unicode="t" horiz-adv-x="768" 
d="M716 505q0 -28 -19 -46q-15 -20 -45 -20q-7 0 -16 2q-62 18 -288 27q-34 -124 -34 -240q0 -45 33 -73q32 -29 86 -29t98 18q33 13 84 50l66 -107q-128 -86 -248 -86q-101 0 -172 64q-72 63 -72 163q0 114 30 243l-192 5v121q63 0 234 -3q21 50 67 144q17 36 51 36
q27 0 47 -17t20 -42q0 -16 -7 -30q-11 -21 -47 -96q210 -10 276 -28q48 -11 48 -56z" />
    <glyph glyph-name="u" unicode="u" horiz-adv-x="847" 
d="M812 17l-120 -15q-6 27 -20 182q-79 -103 -158 -145q-74 -40 -180 -40q-145 0 -230 87q-79 81 -79 201q0 91 14 140q21 82 92 164q21 24 48 24q24 0 43 -20q20 -18 20 -43q0 -22 -19 -43q-48 -56 -62 -103q-13 -41 -13 -119q0 -69 43 -113q50 -51 143 -51q146 0 219 83
q82 92 136 354q5 23 27 40q19 15 43 15q53 0 53 -67q0 -47 -9 -145q-8 -96 -8 -145q0 -163 17 -241zM514 591q0 -31 -27 -37q-36 0 -36 37q19 26 26 26q29 0 37 -26zM600 549q0 -29 -21 -37h-21q-21 8 -21 37q13 21 21 21h21q21 -13 21 -21zM417 570v-20q-13 -22 -22 -22
h-21q-16 9 -16 17v25q9 17 16 17h27q16 -8 16 -17zM565 439q0 -11 -15 -38q-23 0 -58 6q-18 0 -54 -31h-20q-27 11 -27 52v22q0 54 90 68q84 -17 84 -79zM366 477v-5q-4 -10 -28 -20q-30 0 -37 25q0 26 32 37q33 0 33 -37zM268 930q0 -31 -26 -37q-37 0 -37 37q19 26 26 26
q29 0 37 -26zM354 888q0 -29 -21 -37h-21q-21 8 -21 37q13 21 21 21h21q21 -13 21 -21zM172 909v-20q-13 -22 -21 -22h-22q-16 9 -16 17v25q9 17 16 17h27q16 -8 16 -17zM321 778q0 -10 -17 -38q-22 0 -58 6q-18 0 -52 -31h-21q-28 11 -28 53v20q0 55 91 69q85 -17 85 -79z
M120 816v-5q-3 -10 -28 -20q-29 0 -37 25q0 26 32 37q33 0 33 -37z" />
    <glyph glyph-name="v" unicode="v" horiz-adv-x="822" 
d="M786 545q0 -98 -83 -250q-76 -144 -160 -220t-168 -76q-76 0 -158 68q-81 67 -139 222q-53 143 -53 253q0 30 16 51q15 21 43 21q26 0 45 -15q16 -17 16 -37q0 -116 69 -267q75 -170 162 -170q58 0 130 90q61 77 109 187q47 106 50 161q0 18 19 35q18 16 44 16
q25 0 42 -19q16 -21 16 -50z" />
    <glyph glyph-name="w" unicode="w" horiz-adv-x="922" 
d="M892 282q0 -131 -69 -207q-66 -78 -190 -78q-111 0 -186 78q-74 -78 -176 -78q-114 0 -177 72q-61 69 -61 190q0 101 30 208q41 145 116 145q22 0 41 -17q19 -21 19 -45q0 -18 -13 -38q-70 -125 -70 -253q0 -139 110 -139q85 0 136 71q21 29 53 29t52 -32q40 -67 141 -67
q121 0 121 169q0 62 -32 122q-32 52 -63 104q-15 23 -15 39q0 19 19 40q17 17 35 17q70 0 128 -120q51 -108 51 -210z" />
    <glyph glyph-name="x" unicode="x" horiz-adv-x="781" 
d="M742 100l-93 -85l-275 252l-265 -253l-93 84l252 252l-190 152q-25 19 -25 49q0 64 64 64q17 0 57 -31l190 -147l200 145q41 30 75 30q14 0 36 -22q20 -23 20 -42q0 -25 -55 -64l-179 -126z" />
    <glyph glyph-name="y" unicode="y" horiz-adv-x="850" 
d="M808 570q0 -17 -60 -139q-149 -304 -397 -559l-93 75l111 133q-94 51 -218 223q-128 178 -128 270q0 23 20 40q17 17 43 17q43 0 57 -41q93 -261 299 -412q122 135 238 406q18 47 62 47q26 0 44 -20q22 -17 22 -40zM431 849q9 0 32 -31q0 -43 -43 -43q-32 8 -32 43
q9 31 43 31zM312 795h25q10 0 25 -26q0 -33 -25 -43h-25q-24 10 -24 43q0 10 24 26zM520 814h32q7 0 17 -19v-30q0 -9 -17 -19h-26q-10 0 -24 25v24q0 9 18 19zM427 734q105 -17 105 -81v-24q0 -48 -31 -62h-25q-41 37 -62 37q-42 -7 -68 -7q-18 32 -18 44q0 73 99 93z
M600 729q37 -14 37 -43q-9 -30 -43 -30q-29 12 -32 24v6q0 43 38 43z" />
    <glyph glyph-name="z" unicode="z" horiz-adv-x="783" 
d="M734 113q0 -33 -24 -48q-53 -34 -160 -53q-90 -16 -180 -16q-310 0 -310 126q0 73 118 146q55 34 221 109q118 53 118 77q0 26 -45 31h-63q-149 0 -370 -30l-16 122q166 35 386 35q315 0 315 -134q0 -74 -119 -141q-33 -18 -221 -99q-120 -52 -120 -86q0 -25 36 -29
q3 -1 51 -1q176 0 289 47q9 4 29 4q29 0 48 -17q17 -20 17 -43z" />
    <glyph glyph-name="braceleft" unicode="{" horiz-adv-x="493" 
d="M400 -94q0 -24 -17 -39q-16 -17 -38 -17q-62 0 -103 67q-33 58 -30 123l10 214q1 36 -22 70q-23 33 -23 57q0 25 23 56q25 34 22 71l-10 215q-3 64 30 123q37 66 93 66q26 0 44 -16q21 -18 21 -50q0 -18 -13 -28q-13 -9 -26 -19q-35 -24 -34 -77l10 -242q2 -64 -37 -100
q39 -35 37 -98l-10 -241q-1 -54 39 -81q34 -23 34 -54z" />
    <glyph glyph-name="bar" unicode="|" horiz-adv-x="351" 
d="M210 -146h-107v1075h107v-1075z" />
    <glyph glyph-name="braceright" unicode="}" horiz-adv-x="508" 
d="M379 386q0 -24 -24 -57q-22 -34 -21 -70l11 -214q3 -65 -32 -123q-40 -66 -102 -66q-22 0 -38 16q-16 15 -16 39q0 30 38 57q35 25 33 78l-8 241q-3 63 36 98q-39 36 -36 100l8 241q2 54 -38 81q-21 14 -22 15q-11 11 -11 28q0 32 21 50q17 16 43 16q57 0 93 -66
q34 -59 31 -123l-11 -214q-2 -37 21 -71q24 -31 24 -56z" />
    <glyph glyph-name="asciitilde" unicode="~" 
d="M979 255q0 -16 -20 -41q-86 -111 -200 -111q-75 0 -208 54t-203 54q-80 0 -139 -110l-112 65q88 183 261 183q70 0 198 -51q127 -54 197 -54q47 0 96 51q37 35 59 35q71 0 71 -75zM428 901h14q54 -37 100 -83l37 8h92q110 45 166 45h7q10 0 23 -23q-15 -89 -46 -128
l7 -38v-54q0 -130 -219 -166q-213 35 -213 166q0 32 8 85q-15 94 -15 105q15 83 39 83zM435 637q10 -69 69 -69h18q69 0 69 78q-22 70 -78 70q-78 -11 -78 -79zM635 646q0 -45 51 -78h36q69 0 69 70q-11 78 -78 78q-57 0 -78 -70zM897 500h38q15 -2 15 -15v-16
q-136 0 -136 -83q46 -69 46 -99v-6q0 -16 -16 -16h-23q-124 99 -234 99h-24q-109 -16 -121 -16l-14 23v8q0 65 83 75q80 -15 105 -15t100 23q54 -38 66 -46q33 84 115 84zM539 635q0 -11 -8 -17t-18 -6q-9 0 -16 7.5t-7 16.5q0 8 8.5 16t18.5 8q9 0 15.5 -8.5t6.5 -16.5z
M736 638q0 -10 -8 -16t-17 -6q-10 0 -17 7.5t-7 16.5q0 8 8 16t19 8q9 0 15.5 -8.5t6.5 -17.5z" />
    <glyph glyph-name="uni306E" unicode="&#x306e;" horiz-adv-x="1024" 
d="M920 307q0 -109 -56 -222q-61 -125 -103 -125q-33 0 -33 31q0 21 37 69q81 105 81 228q0 171 -80 250q-79 80 -251 80h-13q127 -127 127 -339q0 -112 -68 -181q-67 -70 -179 -70q-122 0 -205 76q-86 78 -86 198q0 184 135 290q124 98 312 98q187 0 284 -99
q98 -99 98 -284zM557 284q0 84 -38 176q-40 96 -101 149q-106 -24 -179 -109q-77 -87 -77 -193q0 -94 63 -152q63 -57 157 -56q77 1 126 54t49 131z" />
    <glyph glyph-name="uni548C" unicode="&#x548c;" horiz-adv-x="1050" 
d="M436 550q56 0 87 -55l8 57q14 128 49 168q16 18 38 18t33 -21q83 25 143 25q94 0 130 -62q12 -22 24 -55q32 -68 32 -283v-17q0 -178 -66 -276q-57 -79 -179 -79l-1 -1q-121 0 -170 92q-50 116 -50 284q0 67 8 143q-42 -41 -117 -41q-11 0 -22 1h-15q-15 0 -27 -1v-173
h15q37 -11 112 -11l-12 -108q-55 0 -106 8l4 -249h-100l-4 318l-123 -157l-76 63l45 69q45 71 100 127q25 24 48 34v19l-1 54q-40 -5 -83 -13t-96 -10v99q75 14 174 24l-5 139l-105 -32q-38 -11 -52 -14l-22 100q326 108 380.5 108.5t54.5 -48.5q-4 -33 -35 -47l-124 -38
l6 -163zM727 62q91 3 126 65q36 67 36 176v18q0 262 -29 287q-32 42 -92 42h-6q-63 -10 -117 -26l-7 -8q-32 -155 -32 -300q0 -59 5 -116q11 -96 53 -124q22 -14 63 -14zM594 840l28 -8q65 -53 106 -103q-99 -88 -163 -72q-13 31 -5 159q20 27 34 24zM950 818
q8 -128 -5 -159q-65 -16 -163 72q41 50 105 103l28 8q14 3 35 -24zM636 487q7 -46 46 -46h12q46 0 46 52q-14 47 -52 47q-52 -8 -52 -53zM769 493q0 -30 34 -52h24q46 0 46 47q-7 52 -52 52q-37 0 -52 -47zM705 485q0 -6 -5 -10t-12 -4q-6 0 -10.5 4.5t-4.5 10.5t5.5 11
t12.5 5q6 0 10 -5.5t4 -11.5zM837 488q0 -7 -5.5 -11t-12.5 -4q-5 0 -10 5t-5 11t5.5 11t12.5 5q6 0 10.5 -5.5t4.5 -11.5z" />
    <glyph glyph-name="uni5979" unicode="&#x5979;" horiz-adv-x="1050" 
d="M539 485l-3 14l-4 -3h1l-9 -3zM825 561q-14 -200 -16 -394h-94q0 155 15 390l-70 -13q-19 -188 -19 -279q0 -92 8.5 -136t25.5 -68q25 -42 86 -42h3q108 0 220 53v-94q-132 -55 -216 -55h-26q-95 0 -147 73t-52 204t14 312l-15 -9q-4 -2 -6 -4l-20 94q23 7 40 16
q14 15 16 47q4 79 14 111q17 53 54 56q47 -2 47 -39.5t-5.5 -70.5t-10.5 -70q32 8 64 11v8q0 101 27 164q11 22 33 26q44 -3 47 -62l-4 -52q-2 -35 -6 -80q125 -13 158 -115q8 -30 8 -64v-30q-1 -109 -17 -218q-11 -18 -53 -18t-43 41q14 80 14 160t-14 108t-60 39zM220 807
q18 45 52 45q38 0 40 -41q0 -6 -12 -20l-57 -189l133 1q15 43 29.5 61t44.5 20q39 -7 39 -40q0 -13 -5.5 -21.5t-12.5 -28.5q23 -18 23 -38q0 -37 -54 -41q-19 -54 -38 -114l-66 -215q-13 -46 -21 -73q60 -37 119 -62l-46 -74l-42 21q-23 13 -54 32l-23 -105q-24 6 -45 12
l-44 13l37 129l-92 65l1 -1q-52 46 -52 103.5t58 266.5l-76 -5v89l102 4l63 207zM161 276q0 -39 21 -64.5t58 -49.5l57 200l49 154q-31 -1 -64 -1h-57l-10 -7q-54 -193 -54 -232z" />
    <glyph glyph-name="uni732B" unicode="&#x732b;" horiz-adv-x="1050" 
d="M277 373h26q-14 125 -66 219l-120 -151l-76 63q28 42 58 82l62 82l-68 33q-33 19 -38 47q5 41 56 42q51 -3 111 -46l73 83h-1q25 23 53 25q38 -5 44 -42q-3 -27 -27 -58l-67 -82q104 -134 107 -360v-13q0 -162 -47 -266q-42 -91 -115 -91q-83 3 -126 51q-51 52 -54 148
q0 84 65 159t150 75zM162 125q0 -102 70 -102q30 0 52.5 58t24.5 178q-17 5 -35.5 5t-36.5 -14q-43 -28 -65 -79q-10 -24 -10 -46zM880 859q39 0 39 -58q76 -2 84 -44q-1 -17 -9 -26q-27 -21 -80 -21q-10 0 -20 1l-12 -53q-5 -29 -9 -56l-89 20l19 87q-44 -3 -92 -5l-84 -5
l10 -54l11 -56l-96 -18l-1 1v-3l-19 121l-94 -8v89l81 12l-4 20l-4 14q1 51 40 51q31 0 41.5 -20t18.5 -59l203 9l10 8q10 30 23 41.5t33 11.5zM960 575h18q13 0 27 -29v-18l-27 -143q9 -85 9 -105q-42 -219 -247 -219h-35q-228 24 -228 209q0 40 10 104q-20 76 -20 182
l20 9h8q64 0 127 -86q73 20 155 20h37q77 76 146 76zM460 497h14q24 -4 24 -26l-151 -105q-25 0 -25 26q0 65 138 105zM522 266v-12q0 -89 85 -89h41q65 42 65 101q0 68 -96 98q-95 -22 -95 -98zM742 266q26 -101 105 -101q69 0 85 101v10q0 88 -85 88h-9q-96 -14 -96 -98z
M522 118q25 -36 146 -104q27 -63 27 -86l-27 -19q-94 0 -164 123v67q3 19 18 19zM905 89h9v-47q-21 -104 -137 -104q-23 0 -27 37q0 54 137 96q3 18 18 18zM621 236q0 -12 -8 -18.5t-19 -6.5q-10 0 -17.5 8t-7.5 18t9 18.5t20 8.5q9 0 16 -9t7 -19zM882 236
q0 -12 -8.5 -18.5t-19.5 -6.5q-9 0 -17 8t-8 18t9 18.5t20 8.5q10 0 17 -9t7 -19z" />
  </font>
</defs>
</svg>
